<svg width="75" height="75" viewBox="0 0 75 75" fill="none" xmlns="http://www.w3.org/2000/svg">
<g filter="url(#filter0_d)">
<path d="M27.6717 42.5063C25.706 35.0535 33.2 34 36.8857 34L37.4997 34.0004C41.1857 34.0021 48.6797 35.0535 46.714 42.5063C47.1236 42.6413 47.9429 42.9924 47.9429 43.3164V45.7467C47.7379 46.0167 47.2052 46.5568 46.714 46.5568C46.2228 46.5568 45.6905 47.0968 45.4857 47.3669C44.8712 48.987 42.4138 52.2274 37.4997 52.2274H36.8857C31.9717 52.2274 29.5145 48.987 28.9 47.3669C28.6952 47.0968 28.1629 46.5568 27.6717 46.5568C27.1805 46.5568 26.6478 46.0167 26.4429 45.7467V43.3164C26.4429 42.9924 27.2621 42.6413 27.6717 42.5063Z" fill="#CEEF9D"/>
<path d="M28.9 52.2274C28.9 57.7351 34.2238 61.0037 36.8857 61.9496H38.1143C40.7762 61.0037 46.1 57.7351 46.1 52.2274C50.4 52.9028 59 55.0638 59 58.3042V66H38.1143H36.8857H16V58.3042C16 55.0638 24.6 52.9028 28.9 52.2274Z" fill="#CEEF9D"/>
<path d="M35.6571 55.0638C35.1657 55.3879 36.6808 55.4689 37.4997 55.4689C38.3187 55.4689 39.8343 55.3879 39.3429 55.0638C39.3429 54.5238 39.22 53.4437 38.7286 53.4437H37.4997H36.2714C35.78 53.4437 35.6571 54.5238 35.6571 55.0638Z" fill="#CEEF9D"/>
<path d="M36.2714 56.279H37.4997H38.7286C39.1381 56.954 39.9571 58.3852 39.9571 58.7092C39.9571 59.0333 38.3187 60.1944 37.4997 60.7344C36.6808 60.1944 35.0429 59.0333 35.0429 58.7092C35.0429 58.3852 35.8619 56.954 36.2714 56.279Z" fill="#CEEF9D"/>
<path d="M27.6717 42.5063C25.706 35.0535 33.2 34 36.8857 34L37.4997 34.0004C41.1857 34.0021 48.6797 35.0535 46.714 42.5063C47.1236 42.6413 47.9429 42.9924 47.9429 43.3164V45.7467C47.7379 46.0167 47.2052 46.5568 46.714 46.5568C46.2228 46.5568 45.6905 47.0968 45.4857 47.3669C44.8712 48.987 42.4138 52.2274 37.4997 52.2274H36.8857C31.9717 52.2274 29.5145 48.987 28.9 47.3669C28.6952 47.0968 28.1629 46.5568 27.6717 46.5568C27.1805 46.5568 26.6478 46.0167 26.4429 45.7467V43.3164C26.4429 42.9924 27.2621 42.6413 27.6717 42.5063Z" stroke="black" stroke-width="0.5"/>
<path d="M28.9 52.2274C28.9 57.7351 34.2238 61.0037 36.8857 61.9496H38.1143C40.7762 61.0037 46.1 57.7351 46.1 52.2274C50.4 52.9028 59 55.0638 59 58.3042V66H38.1143H36.8857H16V58.3042C16 55.0638 24.6 52.9028 28.9 52.2274Z" stroke="black" stroke-width="0.5"/>
<path d="M35.6571 55.0638C35.1657 55.3879 36.6808 55.4689 37.4997 55.4689C38.3187 55.4689 39.8343 55.3879 39.3429 55.0638C39.3429 54.5238 39.22 53.4437 38.7286 53.4437H37.4997H36.2714C35.78 53.4437 35.6571 54.5238 35.6571 55.0638Z" stroke="black" stroke-width="0.5"/>
<path d="M36.2714 56.279H37.4997H38.7286C39.1381 56.954 39.9571 58.3852 39.9571 58.7092C39.9571 59.0333 38.3187 60.1944 37.4997 60.7344C36.6808 60.1944 35.0429 59.0333 35.0429 58.7092C35.0429 58.3852 35.8619 56.954 36.2714 56.279Z" stroke="black" stroke-width="0.5"/>
<path d="M41.2927 1C41.2927 1 40.535 8.7671 41.2927 14.0814C41.863 18.0811 50.0206 24.4976 54.7563 28.2226C56.313 29.447 57.5 30.3807 57.9262 30.842C59.3366 32.3689 58.7709 34.6085 58.0755 35.897C57.984 36.0665 57.9382 36.3068 58.2565 36.3461C59.3235 36.4777 62.2621 34.399 63.8004 30.9435C64.2068 30.0306 67.0574 29.861 67.4328 30.7778C70.3882 37.9962 72.2049 48.8037 64.7308 55.3697C60.7305 53.7477 59.0445 50.5359 49.8451 49.6164C50.9138 48.7563 51.5748 47.8456 51.8761 47.1943C52.1281 46.9217 52.7833 46.3767 53.3879 46.3767C53.9924 46.3767 54.6481 45.8316 54.9003 45.5591V43.1063C54.9003 42.7793 53.892 42.425 53.3879 42.2887C55.8073 34.7668 45.0715 32.0706 40.5347 32.0688L33.7305 32.0684C29.1941 32.0684 18.4583 34.7668 20.8777 42.2887C20.3736 42.425 19.3652 42.7793 19.3652 43.1063V45.5591C19.6175 45.8316 20.2731 46.3767 20.8777 46.3767C21.4823 46.3767 22.1375 46.9217 22.3895 47.1943C22.7055 47.8774 23.4172 48.8459 24.5799 49.7421C17.6565 50.5903 16.9949 53.1528 13.1861 54.4313C12.114 54.7912 11.1519 55.1141 10.2925 55.3697C0.614819 49.4831 7.2682 34.93 9.5364 32.4772C10.5168 31.417 10.1751 29.4821 9.8485 27.6322C9.69069 26.7385 9.5364 25.8646 9.5364 25.1189C9.5364 22.8297 6.51213 20.6222 5 19.8046C9.23397 19.4775 17.8531 27.0266 21.6335 30.842C22.8432 30.515 22.1375 28.253 21.6335 27.1629L20.1213 23.8925L26.1698 26.3453C25.1618 24.165 23.5992 18.6599 25.4138 14.0814C27.2283 9.50294 36.7558 3.45277 41.2927 1Z" fill="#00674C" stroke="black" stroke-width="0.5"/>
</g>
<defs>
<filter id="filter0_d" x="0.134766" y="0.556641" width="74.1157" height="73.6934" filterUnits="userSpaceOnUse" color-interpolation-filters="sRGB">
<feFlood flood-opacity="0" result="BackgroundImageFix"/>
<feColorMatrix in="SourceAlpha" type="matrix" values="0 0 0 0 0 0 0 0 0 0 0 0 0 0 0 0 0 0 127 0"/>
<feOffset dy="4"/>
<feGaussianBlur stdDeviation="2"/>
<feColorMatrix type="matrix" values="0 0 0 0 0 0 0 0 0 0 0 0 0 0 0 0 0 0 0.25 0"/>
<feBlend mode="normal" in2="BackgroundImageFix" result="effect1_dropShadow"/>
<feBlend mode="normal" in="SourceGraphic" in2="effect1_dropShadow" result="shape"/>
</filter>
</defs>
</svg>
