<svg width="75" height="75" viewBox="0 0 75 75" fill="none" xmlns="http://www.w3.org/2000/svg">
<g filter="url(#filter0_d)">
<path d="M25.0934 59.6072H22.4766L29.6728 48.4604L37.5232 59.6072H34.9064V65.1806H25.0934V59.6072Z" fill="#CEEF9D" stroke="black" stroke-width="0.5"/>
<path d="M41.2145 49.9126H38.9248L46.121 37.8369L53.3172 49.9126H51.0275V65.7039H41.2145V49.9126Z" fill="#CEEF9D" stroke="black" stroke-width="0.5"/>
<path d="M57.57 37.8374H55.2803L62.4765 25.7617L69.9998 37.8374H67.383V65.7044H57.57V37.8374Z" fill="#CEEF9D" stroke="black" stroke-width="0.5"/>
<path d="M20.7655 13.9816H13.8799C13.5186 13.9816 13.2111 13.5611 13.0749 13.086C12.8814 12.4107 12.5255 11.5877 12.1311 10.6758C11.2943 8.74063 10.2841 6.40471 10.2841 4.22816C10.4675 3.18657 11.4734 3.60492 12.8408 4.17357C13.8477 4.59235 15.0507 5.09264 16.2655 5.15135C16.4164 5.15865 16.5612 5.08325 16.6807 4.95216C17.9176 3.59542 20.6699 1.27838 23.4808 1.00384C23.8269 0.970025 24.1811 1.15889 24.338 1.59838C25.2684 4.20482 23.3221 9.64024 21.2844 13.608C21.1629 13.8444 20.9716 13.9816 20.7655 13.9816Z" fill="#00674C"/>
<path d="M14.5364 17.6972V15.8394H20.4242V17.6972H14.5364Z" fill="#00674C"/>
<path d="M14.4213 41.0516C14.1573 41.4356 13.7793 41.6276 13.2873 41.6276C12.8193 41.6276 12.4413 41.4356 12.1533 41.0516C11.8773 40.6556 11.7393 40.1156 11.7393 39.4316C11.7393 38.7476 11.8773 38.2136 12.1533 37.8296C12.4413 37.4336 12.8193 37.2356 13.2873 37.2356C13.7793 37.2356 14.1573 37.4276 14.4213 37.8116C14.6973 38.1956 14.8353 38.7356 14.8353 39.4316C14.8353 40.1276 14.6973 40.6676 14.4213 41.0516Z" fill="#00674C"/>
<path d="M22.6833 46.9916C22.4073 47.3756 22.0293 47.5676 21.5493 47.5676C21.0693 47.5676 20.6912 47.3756 20.4152 46.9916C20.1392 46.6076 20.0013 46.0676 20.0013 45.3716C20.0013 44.6756 20.1392 44.1356 20.4152 43.7516C20.6912 43.3676 21.0693 43.1756 21.5493 43.1756C22.0293 43.1756 22.4073 43.3736 22.6833 43.7696C22.9593 44.1536 23.0973 44.6876 23.0973 45.3716C23.0973 46.0556 22.9593 46.5956 22.6833 46.9916Z" fill="#00674C"/>
<path fill-rule="evenodd" clip-rule="evenodd" d="M19.8752 20.0195H15.0857C14.5555 20.0195 14.0806 20.4677 13.871 21.1592C11.9888 27.3693 8.24992 37.9015 6.42607 43.0393C5.80258 44.7957 5.40291 45.9215 5.37776 46.0286C4.72354 48.8153 5.0505 53.4598 5.37776 55.3176L5.42209 55.5074C6.10683 58.4455 7.86749 66 16.8263 66C18.7845 66 20.4287 65.6815 21.8101 65.1535V61.3555H18.7382L27.4189 44L28.4153 46.5C28.9135 47.4714 29.6723 46.4083 29.5832 46.0286C29.558 45.9215 29.1584 44.7958 28.5352 43.0402L28.5347 43.0388C26.7108 37.901 22.9722 27.3692 21.0899 21.1592C20.8803 20.4677 20.4054 20.0195 19.8752 20.0195ZM11.1093 41.9336C11.6613 42.5696 12.3872 42.8876 13.2873 42.8876C14.1873 42.8876 14.9132 42.5756 15.4653 41.9516C16.0293 41.3156 16.3113 40.4756 16.3113 39.4316C16.3113 38.3876 16.0293 37.5536 15.4653 36.9296C14.9132 36.2936 14.1873 35.9756 13.2873 35.9756C12.3872 35.9756 11.6613 36.2936 11.1093 36.9296C10.5573 37.5656 10.2812 38.3996 10.2812 39.4316C10.2812 40.4636 10.5573 41.2976 11.1093 41.9336ZM22.6113 36.1016H20.8472L12.2432 48.7016H14.0072L22.6113 36.1016ZM19.3713 47.8736C19.9233 48.5096 20.6493 48.8276 21.5493 48.8276C22.4493 48.8276 23.1753 48.5096 23.7272 47.8736C24.2913 47.2376 24.5732 46.4036 24.5732 45.3716C24.5732 44.3396 24.2913 43.5056 23.7272 42.8696C23.1753 42.2336 22.4493 41.9156 21.5493 41.9156C20.6493 41.9156 19.9233 42.2336 19.3713 42.8696C18.8193 43.5056 18.5433 44.3396 18.5433 45.3716C18.5433 46.4036 18.8193 47.2376 19.3713 47.8736Z" fill="#00674C"/>
<path d="M20.7655 13.9816H13.8799C13.5186 13.9816 13.2111 13.5611 13.0749 13.086C12.8814 12.4107 12.5255 11.5877 12.1311 10.6758C11.2943 8.74063 10.2841 6.40471 10.2841 4.22816C10.4675 3.18657 11.4734 3.60492 12.8408 4.17357C13.8477 4.59235 15.0507 5.09264 16.2655 5.15135C16.4164 5.15865 16.5612 5.08325 16.6807 4.95216C17.9176 3.59542 20.6699 1.27838 23.4808 1.00384C23.8269 0.970025 24.1811 1.15889 24.338 1.59838C25.2684 4.20482 23.3221 9.64024 21.2844 13.608C21.1629 13.8444 20.9716 13.9816 20.7655 13.9816Z" stroke="black" stroke-width="0.5"/>
<path d="M14.5364 17.6972V15.8394H20.4242V17.6972H14.5364Z" stroke="black" stroke-width="0.5"/>
<path d="M14.4213 41.0516C14.1573 41.4356 13.7793 41.6276 13.2873 41.6276C12.8193 41.6276 12.4413 41.4356 12.1533 41.0516C11.8773 40.6556 11.7393 40.1156 11.7393 39.4316C11.7393 38.7476 11.8773 38.2136 12.1533 37.8296C12.4413 37.4336 12.8193 37.2356 13.2873 37.2356C13.7793 37.2356 14.1573 37.4276 14.4213 37.8116C14.6973 38.1956 14.8353 38.7356 14.8353 39.4316C14.8353 40.1276 14.6973 40.6676 14.4213 41.0516Z" stroke="black" stroke-width="0.5"/>
<path d="M22.6833 46.9916C22.4073 47.3756 22.0293 47.5676 21.5493 47.5676C21.0693 47.5676 20.6912 47.3756 20.4152 46.9916C20.1392 46.6076 20.0013 46.0676 20.0013 45.3716C20.0013 44.6756 20.1392 44.1356 20.4152 43.7516C20.6912 43.3676 21.0693 43.1756 21.5493 43.1756C22.0293 43.1756 22.4073 43.3736 22.6833 43.7696C22.9593 44.1536 23.0973 44.6876 23.0973 45.3716C23.0973 46.0556 22.9593 46.5956 22.6833 46.9916Z" stroke="black" stroke-width="0.5"/>
<path fill-rule="evenodd" clip-rule="evenodd" d="M19.8752 20.0195H15.0857C14.5555 20.0195 14.0806 20.4677 13.871 21.1592C11.9888 27.3693 8.24992 37.9015 6.42607 43.0393C5.80258 44.7957 5.40291 45.9215 5.37776 46.0286C4.72354 48.8153 5.0505 53.4598 5.37776 55.3176L5.42209 55.5074C6.10683 58.4455 7.86749 66 16.8263 66C18.7845 66 20.4287 65.6815 21.8101 65.1535V61.3555H18.7382L27.4189 44L28.4153 46.5C28.9135 47.4714 29.6723 46.4083 29.5832 46.0286C29.558 45.9215 29.1584 44.7958 28.5352 43.0402L28.5347 43.0388C26.7108 37.901 22.9722 27.3692 21.0899 21.1592C20.8803 20.4677 20.4054 20.0195 19.8752 20.0195ZM11.1093 41.9336C11.6613 42.5696 12.3872 42.8876 13.2873 42.8876C14.1873 42.8876 14.9132 42.5756 15.4653 41.9516C16.0293 41.3156 16.3113 40.4756 16.3113 39.4316C16.3113 38.3876 16.0293 37.5536 15.4653 36.9296C14.9132 36.2936 14.1873 35.9756 13.2873 35.9756C12.3872 35.9756 11.6613 36.2936 11.1093 36.9296C10.5573 37.5656 10.2812 38.3996 10.2812 39.4316C10.2812 40.4636 10.5573 41.2976 11.1093 41.9336ZM22.6113 36.1016H20.8472L12.2432 48.7016H14.0072L22.6113 36.1016ZM19.3713 47.8736C19.9233 48.5096 20.6493 48.8276 21.5493 48.8276C22.4493 48.8276 23.1753 48.5096 23.7272 47.8736C24.2913 47.2376 24.5732 46.4036 24.5732 45.3716C24.5732 44.3396 24.2913 43.5056 23.7272 42.8696C23.1753 42.2336 22.4493 41.9156 21.5493 41.9156C20.6493 41.9156 19.9233 42.2336 19.3713 42.8696C18.8193 43.5056 18.5433 44.3396 18.5433 45.3716C18.5433 46.4036 18.8193 47.2376 19.3713 47.8736Z" stroke="black" stroke-width="0.5"/>
</g>
<defs>
<filter id="filter0_d" x="0.75" y="0.75" width="73.6997" height="73.5" filterUnits="userSpaceOnUse" color-interpolation-filters="sRGB">
<feFlood flood-opacity="0" result="BackgroundImageFix"/>
<feColorMatrix in="SourceAlpha" type="matrix" values="0 0 0 0 0 0 0 0 0 0 0 0 0 0 0 0 0 0 127 0"/>
<feOffset dy="4"/>
<feGaussianBlur stdDeviation="2"/>
<feColorMatrix type="matrix" values="0 0 0 0 0 0 0 0 0 0 0 0 0 0 0 0 0 0 0.25 0"/>
<feBlend mode="normal" in2="BackgroundImageFix" result="effect1_dropShadow"/>
<feBlend mode="normal" in="SourceGraphic" in2="effect1_dropShadow" result="shape"/>
</filter>
</defs>
</svg>
